# xmcd
#
# Track frame offsets:
#	150
#	14518
#	28250
#	42663
#	57869
#	71650
#	87373
#	99826
#	116739
#	133667
#	152487
#	172962
#	190690
#	202936
#	222027
#	238092
#	256972
#	267238
#	285481
#	308336
#
# Disc length: 4376 seconds
#
# Revision: 1
# Processed by: cddbd v1.4PL0 Copyright (c) Steve Scherf et al.
# Submitted via: EasyCDDAExtractor 5.0.7
#
DISCID=12111614
DTITLE=Various Artist - Ceske country legendy
DYEAR=1900
DGENRE=
TTITLE0=Frantisek Nedved - Frankie Dlouhan (Ol'Norwood's Coming Home)
TTITLE1=Petra Cernocka a Whisky Band - Nakladak (The Banks Of The Ohio)
TTITLE2=Helena Marsalkova a Frantisek Nedved - Tommy
TTITLE3=Vladimir Hrubec and Stare sedlo - Stare sedlo
TTITLE4=Jarda Blanda a Akaty - Oh Farewell
TTITLE5=Jindrich Stahlavsky - Plava Jane
TTITLE6=KTP Mlada Boloeslav - Te co mam rad
TTITLE7=Vera Martinova a Gram - Dnes mame party
TTITLE8=Vrata Vyskocil a skupina Slavy Kunsta - Konim zatleskam
TTITLE9=Jozef Zoch Blanka Surkova a Schovanky - Nejde verit dal
TTITLE10=Beatrice Psenickova - Don Diego
TTITLE11=Beatrice Psenickova - Ridi na Buh
TTITLE12=Karel Kahovec a Whisky Band - Haj modrinu (Whispering Pins)
TTITLE13=James Branam - Indiana
TTITLE14=Pacifik - Zlati udoli
TTITLE15=Helena Marsalkova and Josef Blazejovsky - Jeansova laska
TTITLE16=Ivan Mladek - Dve Rusky
TTITLE17=Hlucha ucha - Montgomery
TTITLE18=Jitka Vrbova and Akaty - Jedou kanoi
TTITLE19=Milena Soukupova a Hawai Melodi - La Paloma
EXTD=
EXTT0=
EXTT1=
EXTT2=
EXTT3=
EXTT4=
EXTT5=
EXTT6=
EXTT7=
EXTT8=
EXTT9=
EXTT10=
EXTT11=
EXTT12=
EXTT13=
EXTT14=
EXTT15=
EXTT16=
EXTT17=
EXTT18=
EXTT19=
PLAYORDER=
